<?xml version="1.0" encoding="UTF-8" standalone="no"?>
<!-- Created with Inkscape (http://www.inkscape.org/) -->

<svg
   xmlns:dc="http://purl.org/dc/elements/1.1/"
   xmlns:cc="http://creativecommons.org/ns#"
   xmlns:rdf="http://www.w3.org/1999/02/22-rdf-syntax-ns#"
   xmlns:svg="http://www.w3.org/2000/svg"
   xmlns="http://www.w3.org/2000/svg"
   xmlns:sodipodi="http://sodipodi.sourceforge.net/DTD/sodipodi-0.dtd"
   xmlns:inkscape="http://www.inkscape.org/namespaces/inkscape"
   id="svg2985"
   version="1.1"
   inkscape:version="0.48.2 r9819"
   width="120"
   height="120"
   xml:space="preserve"
   sodipodi:docname="red_reddit_alien_hi_res.svg"
   inkscape:export-filename="C:\Development\redditastic Widget\art\hi-res.png"
   inkscape:export-xdpi="384"
   inkscape:export-ydpi="384"><metadata
     id="metadata2991"><rdf:RDF><cc:Work
         rdf:about=""><dc:format>image/svg+xml</dc:format><dc:type
           rdf:resource="http://purl.org/dc/dcmitype/StillImage" /><dc:title></dc:title></cc:Work></rdf:RDF></metadata><defs
     id="defs2989"><clipPath
       clipPathUnits="userSpaceOnUse"
       id="clipPath2999"><path
         d="M 0,96 96,96 96,0 0,0 0,96 z"
         id="path3001" /></clipPath><filter
       id="filter3387"
       inkscape:label="Drop shadow"
       width="1.5"
       height="1.5"
       x="-.25"
       y="-.25"><feGaussianBlur
         id="feGaussianBlur3389"
         in="SourceAlpha"
         stdDeviation="1.5"
         result="blur" /><feColorMatrix
         id="feColorMatrix3391"
         result="bluralpha"
         type="matrix"
         values="1 0 0 0 0 0 1 0 0 0 0 0 1 0 0 0 0 0 0.5 0 " /><feOffset
         id="feOffset3393"
         in="bluralpha"
         dx="0"
         dy="0"
         result="offsetBlur" /><feMerge
         id="feMerge3395"><feMergeNode
           id="feMergeNode3397"
           in="offsetBlur" /><feMergeNode
           id="feMergeNode3399"
           in="SourceGraphic" /></feMerge></filter></defs><sodipodi:namedview
     pagecolor="#ffffff"
     bordercolor="#666666"
     borderopacity="1"
     objecttolerance="10"
     gridtolerance="10"
     guidetolerance="10"
     inkscape:pageopacity="0"
     inkscape:pageshadow="2"
     inkscape:window-width="1348"
     inkscape:window-height="999"
     id="namedview2987"
     showgrid="false"
     inkscape:zoom="11.125147"
     inkscape:cx="108.78788"
     inkscape:cy="59.120144"
     inkscape:window-x="447"
     inkscape:window-y="80"
     inkscape:window-maximized="0"
     inkscape:current-layer="g2995" /><g
     id="g2993"
     inkscape:groupmode="layer"
     inkscape:label="red_reddit_alien"
     transform="matrix(1.25,0,0,-1.25,0,120)"><g
       id="g2995"><g
         id="g2997"
         clip-path="url(#clipPath2999)"
         style="filter:url(#filter3387)"><g
           id="g3003"
           transform="translate(86.2559,76.8628)"><path
             d="m 0,0 c 0,-3.852 -3.123,-6.976 -6.975,-6.976 -3.853,0 -6.976,3.124 -6.976,6.976 0,3.854 3.123,6.977 6.976,6.977 C -3.123,6.977 0,3.854 0,0"
             style="fill:#ffffff;fill-opacity:1;fill-rule:nonzero;stroke:none"
             id="path3005" /></g><g
           id="g3007"
           transform="translate(86.2559,76.8628)"><path
             d="m 0,0 c 0,-3.852 -3.123,-6.976 -6.975,-6.976 -3.853,0 -6.976,3.124 -6.976,6.976 0,3.854 3.123,6.977 6.976,6.977 C -3.123,6.977 0,3.854 0,0 z"
             style="fill:none;stroke:#ff4500;stroke-opacity:1;stroke-width:4;stroke-linecap:square;stroke-linejoin:round;stroke-miterlimit:4;stroke-dasharray:none"
             id="path3009" /></g><g
           id="g3011"
           transform="translate(71.7871,78.4131)"><path
             d="m 0,0 -17.309,3.876 -5.943,-19.378"
             style="fill:none;stroke:#ff4500;stroke-opacity:1;stroke-width:4;stroke-linecap:square;stroke-linejoin:round;stroke-miterlimit:4;stroke-dasharray:none"
             id="path3013" /></g><g
           id="g3015"
           transform="translate(19.3384,53.6953)"><path
             d="m 0,0 c -1.611,1.842 -3.972,3.011 -6.61,3.011 -4.851,0 -8.786,-3.934 -8.786,-8.786 0,-3.582 2.147,-6.658 5.222,-8.026 C -8.969,-8.502 -5.315,-3.733 0,0"
             style="fill:#ffffff;fill-opacity:1;fill-rule:nonzero;stroke:none"
             id="path3017" /></g><g
           id="g3019"
           transform="translate(19.3384,53.6953)"><path
             d="m 0,0 c -1.611,1.842 -3.972,3.011 -6.61,3.011 -4.851,0 -8.786,-3.934 -8.786,-8.786 0,-3.582 2.147,-6.658 5.222,-8.026 C -8.969,-8.502 -5.315,-3.733 0,0 z"
             style="fill:none;stroke:#ff4500;stroke-opacity:1;stroke-width:4;stroke-linecap:square;stroke-linejoin:round;stroke-miterlimit:4;stroke-dasharray:none"
             id="path3021" /></g><g
           id="g3023"
           transform="translate(83.2715,56.7061)"><path
             d="m 0,0 c -2.64,0 -5,-1.169 -6.61,-3.011 5.315,-3.733 8.969,-8.502 10.174,-13.8 3.075,1.368 5.221,4.444 5.221,8.025 C 8.785,-3.934 4.852,0 0,0"
             style="fill:#ffffff;fill-opacity:1;fill-rule:nonzero;stroke:none"
             id="path3025" /></g><g
           id="g3027"
           transform="translate(83.2715,56.7061)"><path
             d="m 0,0 c -2.64,0 -5,-1.169 -6.61,-3.011 5.315,-3.733 8.969,-8.502 10.174,-13.8 3.075,1.368 5.221,4.444 5.221,8.025 C 8.785,-3.934 4.852,0 0,0 z"
             style="fill:none;stroke:#ff4500;stroke-opacity:1;stroke-width:4;stroke-linecap:square;stroke-linejoin:round;stroke-miterlimit:4;stroke-dasharray:none"
             id="path3029" /></g><g
           id="g3031"
           transform="translate(87.2734,35.8359)"><path
             d="m 0,0 c 0,-14.268 -17.584,-25.836 -39.273,-25.836 -21.69,0 -39.273,11.568 -39.273,25.836 0,14.271 17.583,25.839 39.273,25.839 C -17.584,25.839 0,14.271 0,0"
             style="fill:#ffffff;fill-opacity:1;fill-rule:nonzero;stroke:none"
             id="path3033" /></g><g
           id="g3035"
           transform="translate(87.2734,35.8359)"><path
             d="m 0,0 c 0,-14.268 -17.584,-25.836 -39.273,-25.836 -21.69,0 -39.273,11.568 -39.273,25.836 0,14.271 17.583,25.839 39.273,25.839 C -17.584,25.839 0,14.271 0,0 z"
             style="fill:none;stroke:#ff4500;stroke-opacity:1;stroke-width:4;stroke-linecap:square;stroke-linejoin:round;stroke-miterlimit:4;stroke-dasharray:none"
             id="path3037" /></g><g
           id="g3039"
           transform="translate(34.417,24.2227)"><path
             d="m 0,0 c 3.76,-3.08 8.302,-4.072 13.583,-4.072 5.281,0 9.824,0.992 13.582,4.072"
             style="fill:#ffffff;fill-opacity:1;fill-rule:nonzero;stroke:#ff4500;stroke-opacity:1;stroke-width:4;stroke-linecap:round;stroke-linejoin:round;stroke-miterlimit:4;stroke-dasharray:none"
             id="path3041" /></g><g
           id="g3043"
           transform="translate(40.5249,40.9492)"><path
             d="m 0,0 c 0,-3.424 -2.777,-6.201 -6.201,-6.201 -3.425,0 -6.201,2.777 -6.201,6.201 0,3.426 2.776,6.202 6.201,6.202 C -2.777,6.202 0,3.426 0,0"
             style="fill:#ff4500;fill-opacity:1;fill-rule:nonzero;stroke:none"
             id="path3045" /></g><g
           id="g3047"
           transform="translate(68.1699,40.9492)"><path
             d="m 0,0 c 0,-3.424 -2.775,-6.201 -6.199,-6.201 -3.426,0 -6.201,2.777 -6.201,6.201 0,3.426 2.775,6.202 6.201,6.202 C -2.775,6.202 0,3.426 0,0"
             style="fill:#ff4500;fill-opacity:1;fill-rule:nonzero;stroke:none"
             id="path3049" /></g></g></g></g></svg>